<svg xmlns="http://www.w3.org/2000/svg"><style>:root svg:not(:target){display:none}</style><svg fill="none" id="htmlacademy" viewBox="0 0 27 34"><path d="M13.759 0h-.1L.22 1.396v24.627L13.659 34 27 26.023V1.396L13.759 0Zm11.35 12.065-11.45-6.78v-.1h-.1l-.099-.1v.1l-11.35 6.88V3.09l11.45-1.197 11.548 1.197v8.974ZM13.558 6.78l11.45 6.68-4.48 2.593-7.069-4.188v1.396l5.874 3.49-.896.498-4.978-2.99v1.395l3.783 2.293-.796.499-2.987-1.795v1.396l1.892 1.097-1.792 1.097-11.35-6.68 11.35-6.78ZM2.11 15.056l11.35 6.78v.997l-7.865-4.686v1.396l7.965 4.785v1.097L5.595 20.74v1.396l7.965 4.786 8.064-4.886V16.85l3.385-1.994v9.971l-11.45 6.88-11.449-6.78v-9.871Z" fill="#63D1BB"></path></svg><svg fill="none" id="logo-desktop" viewBox="0 0 149 72"><path d="M144.16 31.105c-1.51 1.086-3.121 1.876-4.732 2.764 0-1.678-.1-3.455-.604-5.034.101-.296.101-.691.101-.987.403-2.962.705-7.009-2.013-9.082-.302-.296-1.208 0-1.913.296-.201-.197-.302-.296-.503-.395-.101-.197-.201-.493-.201-.69 0-.1-.202-.198-.403-.198.302-.395.302-.79-.403-1.086-.402-.197-.805-.296-1.107-.395-.101-.098-.101-.098-.201-.098-.906-.296-1.913-.494-2.92-.691.101-.296.403-.79.604-.988.101-.197.302-.296.403-.394l.201-.198s.101 0 .101-.098l.101-.1c.402-.295.805-.888.201-1.184-.604-.296-1.51-.099-2.013.198-.906.69-1.611 1.382-2.114 2.369-2.013-.198-4.027-.198-6.141-.099.101-.099.101-.197.101-.296.201-.592-.906-.494-1.208-.494-1.611.198-3.121.395-4.731.593 1.409-3.752 3.12-8.49 1.006-12.142-1.208-2.073-3.925-2.567-6.14-2.665-2.416-.1-4.933.493-7.047 1.58-4.831 2.566-7.147 7.6-8.254 12.93-.503-.69-2.315-.394-2.617.494-.1.296-.202.592-.302.987-.202.198-.302.395-.302.593v.197h-.202c0-.099 0-.198.101-.296.1-.099.201-.198.302-.395.604-2.27 1.208-4.54 1.913-6.713.302-.79-2.517-.394-2.819.395-.403 1.185-.805 2.37-1.107 3.554-.202.099-.403.197-.403.296v.099a.777.777 0 0 0-.503-.198v-.987c0-.395-2.819 0-2.819.79v1.58c-.201.098-.302.197-.503.296l-.201.197c-.101.099-.101.197-.101.197v.1l-.1.098c-.101.098-.202.296 0 .493.2.198.503.198.704.198h.1v.493h-.704l-.403-.098c0-.395-.704-.494-1.41-.296v-.1c-.1-.592-.2-1.184-.2-1.776.2-.099.503-.197.704-.296.202-.099.302-.198.302-.395v-.197c0-.198-.402-.198-.503-.198h-.604c-.1-1.283-.1-2.566-.1-3.85 0-.79-2.82-.296-2.82.79 0 1.777 0 3.554.202 5.232h-.302v-1.48c0-.988-1.309-1.185-2.114-.79.302-.297.503-.593.403-.988-.403-1.382-.806-2.764-1.007-4.244-.201-1.382-3.02-.691-2.819.79.202 1.48.605 2.862 1.007 4.244.201.79 1.309.888 2.114.494-.201.197-.403.493-.403.79v.591c-.302-.296-.503-.296-.906-.296-1.107 0-1.71.889-1.409 1.481-.201 0-.302-.099-.503-.099-.403-1.184-.705-2.467-.705-3.75 0-.89-1.308-.988-2.114-.692v-.197c-.402-.79-.604-1.678-.805-2.468-.302-1.283-3.221-.592-2.819.79.202.592.302 1.283.504 1.875h-.101c-.302.099-.604.198-.906.395-.805.099-1.812.592-1.812 1.185.1.493.1.987.201 1.382-.402.098-1.006.098-1.51.197a10.25 10.25 0 0 1-.603-2.37c-.101-.887-1.611-.887-2.316-.295-.805-2.073-1.812-3.949-3.12-5.726-2.718-3.356-7.248-4.54-11.375-3.652-1.913.395-3.725 1.185-5.034 2.567-1.208 1.382-1.409 3.06-1.208 4.738.202 1.48.604 3.948 1.611 5.923-.403 0-.705 0-.906.098-.302.099-.604.198-.805.395-1.913 0-3.926 0-5.839-.099-4.228-.197-8.355-.888-12.583-.69-.906 0-1.51.69-1.51 1.283a4.267 4.267 0 0 0-2.114 2.27c-1.711-1.086-3.523-2.27-5.335-3.159-.704-.394-3.322.691-2.315 1.185 1.812.888 3.624 2.073 5.335 3.159.503.296 1.309.098 1.812-.099 0 0 .1 0 .201-.099-.302 1.382-.201 3.06.202 4.442 0 .1.1.198.201.297v1.184c-.403.197-.705.494-.805.79a28.728 28.728 0 0 0-.302 4.146c-.302.197-.504.493-.504.79-.201 3.257 0 6.613.504 9.87.201 2.666.704 5.233 1.208 7.898.1.395.1.79.201 1.283-.302 1.086-.403 2.37-.201 3.455-.906.198-1.712.889-1.208 1.58.805 1.184 1.61 1.974 2.617 2.566-.604-.099-1.41.099-1.913.592-.805.79-1.711 1.481-2.516 2.27-.403.395-.302.89.302 1.087.704.197 1.51-.1 2.013-.494.805-.79 1.711-1.48 2.517-2.27.2-.198.302-.494.2-.691 3.222 1.678 7.249 1.283 11.175.888-.906 1.58-1.51 3.258-2.215 4.936-.302.69 2.517.394 2.819-.395.604-1.678 1.208-3.258 2.113-4.837 3.725.099 7.55.099 11.275.099.1.197.403.296.705.296 3.322.296 6.543-.099 9.764-.691 4.832-.198 9.664-.494 14.496-.79 7.55-.197 15.2-.296 22.75-.296l.302.296c.302.296.604.296 1.006.296h.202c.704 0 1.409.099 2.114.099.2 0 .302.099.604 0 .805.099 1.61.099 2.315.197.201.198.503.296.805.395 3.825.296 7.651.494 11.476.691.101.198.503.296.805.296 7.147.099 15.402 2.764 21.744-1.678.503-.395.302-.888-.302-.987h-.302c1.208-2.764 2.214-5.528 2.919-8.49.403-.197.604-.493.604-.888 0-1.184.201-2.369.403-3.553.201-.889.302-1.777.402-2.666.403-2.171.805-4.343 1.007-6.416 2.315-1.086 4.53-2.27 6.644-3.751 1.61-1.185-.806-1.876-1.812-1.185ZM88.392 16.298l-.1.099c.1-.296.1-.592.2-.888h.101c0 .197-.1.493-.201.79Z" fill="#000"></path><path d="M63.729 12.547c.1.197.604.197.805.197.403 0 .806-.098 1.108-.197.402-.198 1.107-.593.805-1.086-.403-.592-.604-1.185-1.007-1.777-.1-.197-.604-.197-.805-.197-.403 0-.805.098-1.107.197-.403.198-1.108.592-.806 1.086.302.592.604 1.283 1.007 1.777ZM20.846 10.87c.201.591 1.107.591 1.61.493.504-.1 1.41-.593 1.209-1.284-.202-.592-.403-1.283-.906-1.776-.504-.494-1.309-.395-1.913-.198-.403.198-1.208.79-.705 1.283.403.593.504.889.705 1.481ZM30.912 13.83c.806 0 3.121-1.283 1.208-1.283-.906 0-3.12 1.284-1.208 1.284ZM123.423 12.251c.302.099.705 0 1.107-.098.302-.1.705-.198.906-.494.403-.395.705-.691 1.007-1.185.101-.197.201-.395 0-.592-.201-.197-.503-.197-.805-.296-.403 0-.806.099-1.108.197a1.56 1.56 0 0 0-.805.593c-.101.197-.201.395-.403.493l-.201.198c-.201.197-.302.394-.302.592.101.395.302.493.604.592ZM136.811 17.582c.604-.1 1.409-.198 1.913-.691 1.308-1.086 2.617-2.172 3.623-3.554.302-.395-1.006-.197-1.107-.197-.503.098-1.308.296-1.711.69-.906 1.284-2.215 2.27-3.423 3.357-.503.395.403.395.705.395ZM147.682 44.333h-4.932c-.604 0-1.51.494-1.611 1.086-.1.691.806.889 1.309.889h4.932c.604 0 1.51-.494 1.611-1.086.101-.691-.705-.889-1.309-.889ZM57.387 60.127c-.503.098-1.409.296-1.61.79-.504 1.283-1.007 2.566-1.41 3.85-.2.69 2.618.296 2.82-.494.402-1.283.804-2.567 1.408-3.85.202-.494-1.006-.296-1.208-.296ZM62.018 62.694c-.302 0-.705.098-1.007.197-.302.099-.705.197-1.007.395-.1.099-.301.197-.301.395v.296c0 .099-.101.197-.101.296-.1.099-.1.197 0 .296.201.099.503.099.705.099.402 0 .704-.099 1.107-.296.201-.1.604-.198.805-.395.1-.198.201-.296.302-.494v-.493c0-.297-.403-.297-.503-.297ZM117.483 66.346c-.402-.691-3.019.296-2.818.79.805 1.579 1.912 3.06 2.919 4.639.403.69 3.02-.395 2.819-.79-1.007-1.58-2.114-3.06-2.92-4.64ZM121.51 63.977c-.302-.593-1.107-.593-1.61-.395-.403.099-1.51.592-1.208 1.184.402.79.805 1.58 1.208 2.27.302.593 1.107.593 1.61.396.403-.1 1.51-.593 1.208-1.185-.402-.69-.805-1.48-1.208-2.27ZM5.746 42.654c-1.51.395-3.02.593-4.53.987-.503.1-1.308.593-1.207 1.284.2.69 1.107.69 1.71.592 1.51-.395 3.02-.592 4.53-.987.504-.099 1.31-.691 1.209-1.283-.302-.691-1.208-.691-1.712-.593Z" fill="#000"></path><path d="M44.1 39.692c-.101-2.665-.504-5.33-.504-7.996 0-2.171.403-4.442-.402-6.515 0-.197.1-.493.1-.69.202-1.087-3.322-.494-3.825.493-.302.296-.503.592-.403.987 0 .099.101.198.101.296-.705 3.159-1.61 6.318-2.617 9.378-.403 1.184-.906 2.37-1.309 3.554-.604-1.086-1.208-2.172-1.711-3.357-1.41-3.455-2.617-6.91-4.329-10.167.202-1.48-3.22-1.382-3.926 0-.805 1.678-.704 3.356-.402 5.232.302 2.073.402 4.047.402 6.12 0 3.948.403 7.897.403 11.846-.403.394-.503.888-.1 1.382l.603.592c.906.69 3.524.099 3.524-1.284 0-4.145-.302-8.193-.403-12.339V36.04c.1.099.1.296.201.395.604 1.58 1.309 3.158 2.215 4.64.906 1.48 1.308 3.06 1.812 4.639-.202.197-.302.493-.202.69 0 .198.101.297.302.395.604.593 1.913.297 2.517 0 .302-.098.604-.296.805-.394.302-.198.906-.691.705-1.185 0-.099-.1-.197-.1-.296.503-1.283.704-2.566 1.006-3.949.302-1.382.805-2.764 1.309-4.145.1.592.1 1.283.201 1.875.201 2.567 0 5.034 0 7.601 0 .888.1 1.58.201 2.468.101.296.403 1.777.302 1.875-.604.593-.402 1.284.403 1.382.906.198 2.114-.098 2.819-.69 1.208-1.087.604-2.863.402-4.245-.604-2.37-.1-5.035-.1-7.404ZM52.556 40.384c-.101-1.974-.806-3.85-.806-5.824 0-2.27.202-4.54-.201-6.811-.1-.691-4.127.098-4.027 1.085.302 2.073.202 4.245.202 6.318 0 2.073.503 3.85.704 5.923.302 2.073-.1 4.146.101 6.219.1.987.805 2.764.1 3.554-.402.493 1.51.296 1.611.296.806-.099 1.812-.395 2.316-.987.704-.79.2-2.37.1-3.357-.201-2.27 0-4.343-.1-6.416ZM69.165 37.028c-2.114-2.764-5.94-.79-8.657-1.58-1.41-.395-1.41-2.27-1.41-3.356 0-1.382-.1-2.764-.301-4.146-.101-1.086 0-2.073.805-2.863.1-.098.906-.296.805-.296.403-.099.705-.099 1.108-.099 1.61-.098 4.73.198 4.127 2.468-.302.987 3.624.395 3.926-.592 1.208-4.54-7.45-3.652-9.865-3.06-2.215.592-4.732 1.875-4.832 4.343-.101 1.185.302 2.37.302 3.554.1 1.382-.202 2.764.302 4.146 1.107 2.961 5.637 1.58 7.851 1.777 3.926.296 2.718 5.429 2.819 7.897 0 1.283 1.208 3.455.201 4.442-.604.69-2.013.69-2.818.79-.806.098-2.215.296-2.819-.494-1.007-1.382.1-3.751-.1-5.43-.202-.986-4.228-.098-4.027.988.302 2.665-1.41 6.12 2.416 6.614 2.517.296 5.234-.198 7.65-.889a10.758 10.758 0 0 0 3.322-1.777c1.007-.888.705-2.369.403-3.553-.705-2.962.705-6.318-1.208-8.884ZM86.781 36.83c-.1-3.751-.705-7.502-.705-11.253 0-1.975-4.026-1.284-4.026.296 0 3.553.503 7.107.705 10.76v.197c-2.014 0-3.926.197-5.94.197.202-4.64-.604-9.18-.402-13.82 0-.592-3.926-.098-4.027 1.086-.201 4.442.604 8.885.504 13.327-.101 2.171-.202 4.244-.302 6.416 0 1.086.2 2.172.302 3.258.1.987.503 2.369.2 3.257-.2.79 3.625.296 3.927-.69.503-1.778-.202-4.048-.403-5.825-.201-1.678 0-3.455.1-5.232 2.014-.098 4.128-.296 6.141 0l.302 4.146c.1 1.185.202 2.27.202 3.455 0 .987.1 2.468-.202 3.455-.805 2.073 3.222 1.876 3.826.395.704-1.876.503-4.146.402-6.12-.201-2.37-.604-4.837-.604-7.305ZM103.894 41.371c-.906-2.764-2.416-5.133-3.624-7.798 1.007-1.974 2.013-3.85 3.02-5.824.805-1.777 1.51-3.85 3.121-5.035.604-.493.604-.888-.302-.987-.906-.099-2.114.198-2.819.691-1.51 1.185-2.416 2.567-3.221 4.245-1.007 2.073-1.913 4.047-3.02 6.021-.1.099-.202.297-.202.395-.503.296-.805.79-.603 1.283-.806 1.58-1.611 3.06-2.517 4.64-.302-5.528-1.007-11.056-1.208-16.584 0-1.283-4.027-.493-4.027 1.086.202 6.811 1.208 13.622 1.31 20.532v.1c-.303.295-.202.493.1.591 0 1.777-.1 3.455-.202 5.232-.503.79.504 1.086 1.108 1.086h.1c.705 0 2.618-.395 2.718-1.382.202-2.073.302-4.146.202-6.219 1.61-1.678 2.919-3.652 4.127-5.627.805 1.481 1.51 2.962 2.013 4.541.906 2.764 2.315 5.232 3.221 7.996.504 1.777 4.53.691 4.027-1.086-.906-2.665-2.315-5.232-3.322-7.897ZM127.852 36.732c-.201-.79-1.409-.889-2.315-.79v-.987c-.1-2.666-.201-5.33-.402-7.996-.202-2.468-1.611-3.356-4.027-3.258-2.416.1-5.335.494-7.651 1.382-2.617.988-4.127 2.962-4.63 5.627-.604 2.962.201 6.219.403 9.18.201 3.455.1 7.009.1 10.464 0 .592 4.027 0 4.027-1.086v-8.292c0-.79-.101-1.58-.101-2.468 1.409-.592 3.725 0 5.134.1 1.107.098 2.215-.198 3.322-.297 0 2.27.101 4.64.201 6.91 0 1.185.504 3.554-.402 4.54-.403.494 1.51.297 1.61.297.806-.099 1.812-.395 2.316-1.086 1.006-1.086.503-3.751.402-5.133-.101-1.876-.101-3.85-.101-5.725 1.007.197 2.316-.593 2.114-1.382Zm-14.898-.198c-.101-1.283-.201-2.468-.302-3.751-.201-2.37.101-5.528 2.315-7.009.604-.395 1.712-.296 2.416-.395 1.007-.197 2.014-.394 2.92.198 1.208.79.906 3.652.906 4.837 0 1.974.201 3.948.302 6.021-.604.1-1.108.1-1.712.1-2.315-.1-4.63-.396-6.845 0ZM49.133 24.984c.503-.098 1.107-.197 1.51-.493.1-.099.201-.099.302-.198.503-.296 1.006-.79.704-1.382-.503-1.085-.402-2.27-.402-3.356 0-.987-1.007-1.283-1.812-1.184-.705.098-2.215.592-2.215 1.48 0 .987-.1 1.975.1 2.962 0 .098-.1.197-.1.395-.1.197 0 .394.1.592v.395c.102.197.202.395.404.493.402.296.906.296 1.409.296Z" fill="#fff"></path></svg><svg fill="none" id="logo-footer" viewBox="0 0 102 35"><path d="M19.22 21.5c-.1-2.7-.5-5.3-.5-8 0-2.2.4-4.4-.4-6.5 0-.2.1-.5.1-.7.2-1-3.3-.5-3.8.5-.3.3-.5.6-.4 1 0 .1.1.2.1.3-.7 3.2-1.6 6.3-2.6 9.4-.4 1.2-.9 2.3-1.3 3.5-.6-1.1-1.2-2.2-1.6-3.4-1.4-3.4-2.6-6.9-4.3-10.2.2-1.5-3.2-1.4-3.9 0-.8 1.7-.7 3.4-.4 5.2.3 2 .4 4 .4 6.1 0 4 .4 7.9.4 11.9-.4.4-.5.9-.1 1.4.2.2.4.4.6.5 1 .7 3.6.1 3.6-1.3 0-4.1-.3-8.2-.4-12.4v-1.2c.1.1.1.3.2.4.6 1.6 1.3 3.2 2.2 4.7.9 1.5 1.3 3.1 1.8 4.7-.2.2-.3.5-.2.7 0 .2.1.3.3.4.6.5 1.8.3 2.5 0 .3-.1.6-.3.8-.4.3-.2.9-.7.7-1.2 0-.1-.1-.2-.1-.3.5-1.3.7-2.6 1-3.9.3-1.4.8-2.8 1.3-4.1.1.6.1 1.2.2 1.9.2 2.6 0 5.1 0 7.6 0 .8.1 1.6.2 2.5.1.3.4 1.8.3 1.9-.8.5-.6 1.1.2 1.3.9.2 2.1-.1 2.8-.7 1.2-1.1.6-2.8.4-4.2-.5-2.4 0-5-.1-7.4ZM27.62 22.2c-.1-2-.8-3.9-.8-5.9 0-2.3.2-4.6-.2-6.9-.1-.7-4.1.1-3.9 1 .3 2.1.2 4.2.2 6.4 0 2 .5 3.9.7 5.9.3 2.1-.1 4.2.1 6.2.1 1 .8 2.7.1 3.6-.4.5 1.5.3 1.6.3.8-.1 1.8-.4 2.3-1 .7-.8.2-2.4.1-3.4-.3-2-.1-4.2-.2-6.2ZM43.92 18.9c-2.1-2.8-5.9-.8-8.6-1.5-1.4-.4-1.4-2.3-1.4-3.4 0-1.4-.1-2.7-.3-4.1-.1-1.1 0-2.1.7-2.9.1-.1.9-.3.8-.3.4-.1.7-.1 1.1-.1 1.5-.1 4.6.2 4 2.5-.3 1 3.6.4 3.9-.6 1.2-4.6-7.3-3.7-9.7-3.1-2.2.6-4.6 1.8-4.8 4.4-.1 1.2.3 2.4.3 3.6.1 1.4-.2 2.8.3 4.1 1.1 3 5.5 1.6 7.8 1.7 3.8.3 2.7 5.5 2.7 7.9 0 1.3 1.2 3.4.2 4.5-.6.7-2 .7-2.8.8-.8.1-2.2.3-2.7-.5-1-1.4.1-3.8-.1-5.4-.1-.9-4.1-.1-3.9 1 .3 2.6-1.4 6.1 2.4 6.6 2.4.3 5.2-.2 7.5-.9 1.2-.4 2.3-.9 3.2-1.8 1-.9.7-2.3.4-3.5-.5-3.1.9-6.5-1-9ZM61.32 18.7c-.1-3.8-.7-7.5-.7-11.3 0-2-4-1.3-4 .3 0 3.6.5 7.2.7 10.8v.2c-1.9 0-3.9.2-5.9.2.2-4.6-.6-9.2-.4-13.9 0-.6-3.9-.1-3.9 1-.2 4.5.6 8.9.5 13.4-.1 2.1-.2 4.3-.3 6.4 0 1.1.2 2.2.3 3.3.1 1 .5 2.3.2 3.3-.2.8 3.6.3 3.9-.7.5-1.8-.2-4-.4-5.8-.2-1.7 0-3.5.1-5.2 2-.1 4.1-.3 6.1 0 .1 1.4.2 2.8.3 4.1.1 1.2.2 2.3.2 3.5 0 1 .1 2.5-.2 3.5-.8 2.1 3.1 1.9 3.7.4.7-1.9.5-4.2.4-6.2-.2-2.5-.6-4.9-.6-7.3ZM78.22 23.1c-.9-2.8-2.4-5.2-3.6-7.8 1-1.9 2-3.9 2.9-5.9.8-1.8 1.4-3.8 3.1-5.1.6-.4.6-.9-.3-1-.9-.1-2.1.2-2.8.7-1.4 1.3-2.4 2.7-3.1 4.4-.9 2.1-1.9 4.1-2.9 6.1-.1.1-.1.3-.2.4-.5.3-.8.8-.6 1.3-.8 1.6-1.6 3.1-2.5 4.6-.3-5.5-1-11.1-1.2-16.6 0-1.3-4-.5-3.9 1 .2 6.9 1.2 13.7 1.3 20.6v.1c-.3.3-.2.5.1.6 0 1.8-.1 3.5-.2 5.3-.5.7.5 1.1 1.1 1.1h.1c.7 0 2.6-.3 2.7-1.4.2-2.1.3-4.2.2-6.3 1.6-1.7 2.9-3.6 4.1-5.6.8 1.5 1.5 3 2 4.6.9 2.7 2.3 5.3 3.1 8 .5 1.8 4.5.7 3.9-1-1-2.8-2.4-5.3-3.3-8.1ZM101.72 18.5c-.2-.8-1.4-.8-2.3-.8v-1c-.1-2.7-.2-5.4-.4-8-.2-2.5-1.6-3.3-4-3.2-2.4.1-5.2.5-7.5 1.4-2.6 1-4.1 2.9-4.6 5.7-.5 3 .2 6.2.4 9.2.2 3.5.1 7 .1 10.5 0 .6 3.9 0 3.9-1V23c0-.8-.1-1.6-.1-2.4 1.4-.6 3.7 0 5.1.1 1.1.1 2.2-.2 3.2-.3 0 2.3.1 4.6.2 6.9 0 1.2.5 3.5-.4 4.5-.4.5 1.5.3 1.6.3.8-.1 1.8-.4 2.3-1 .9-1.1.5-3.8.4-5.1-.1-1.9-.1-3.8-.1-5.7 1.1-.2 2.4-.9 2.2-1.8Zm-14.6-.1c-.1-1.2-.2-2.5-.3-3.7-.2-2.3.1-5.6 2.3-7 .6-.4 1.7-.3 2.4-.4 1-.2 2-.4 2.8.2 1.2.8.9 3.7.9 4.9 0 2 .2 4 .3 6-.6.1-1.1.1-1.7.1-2.3-.2-4.6-.6-6.7-.1ZM24.22 6.7c.5-.1 1-.2 1.5-.5l.2-.2c.5-.3 1-.8.7-1.4-.5-1.1-.4-2.2-.4-3.4 0-1-1-1.2-1.8-1.2-.7.1-2.2.6-2.2 1.5 0 1-.1 2 .1 3 0 .1-.1.2-.1.4-.1.2 0 .4.1.6v.4c.1.2.2.4.4.5.6.3 1.1.3 1.5.3Z" fill="#000"></path></svg><svg fill="none" id="logo-mobile" viewBox="0 0 86 35"><path d="M4.547 26.319c0-3.5-.3-6.9-.4-10.4v-1c0 .1.1.2.1.4.5 1.4 1.1 2.7 1.8 3.9.7 1.2 1.1 2.6 1.5 3.9-.2.2-.3.4-.2.6 0 .2.1.2.2.3.5.5 1.5.2 2.1 0 .2-.1.5-.2.7-.4.3-.2.7-.6.6-1 0-.1 0-.2-.1-.2.4-1.1.6-2.2.8-3.3.2-1.2.7-2.3 1.1-3.5 0 .5.1 1 .1 1.6.2 2.1 0 4.3 0 6.4 0 .7 0 1.4.2 2.1.1.3.3 1.5.2 1.6-.5.5-.4 1.1.3 1.2.8.2 1.8-.1 2.3-.6 1-.9.5-2.4.3-3.6-.4-2 .1-4.2 0-6.2-.1-2.3-.4-4.5-.4-6.8 0-1.8.3-3.7-.3-5.5 0-.2.1-.4.1-.6.2-.9-2.8-.4-3.2.4-.3.2-.4.5-.3.8 0 .1.1.1.1.2-.6 2.7-1.3 5.3-2.2 7.9-.3 1-.7 2-1.1 3-.5-.9-1-1.9-1.4-2.8-1.2-2.9-2.2-5.8-3.6-8.6.2-1.3-2.7-1.2-3.3 0-.7 1.4-.6 2.9-.4 4.4.3 1.7.3 3.4.3 5.1 0 3.3.3 6.7.4 10-.3.3-.4.7-.1 1.2.1.2.3.3.5.5 1.2.7 3.3.2 3.3-1ZM22.747 7.919c-.1-.6-3.4.1-3.3.9.3 1.8.2 3.6.1 5.4 0 1.7.4 3.3.6 5 .2 1.7-.1 3.5.1 5.2.1.8.6 2.3.1 3-.4.4 1.2.3 1.3.3.6-.1 1.5-.3 1.9-.9.6-.7.2-2 0-2.8-.3-1.7-.1-3.5-.2-5.3-.1-1.7-.6-3.3-.7-4.9.3-2 .4-3.9.1-5.9ZM25.947 14.619c.9 2.5 4.6 1.3 6.6 1.5 3.2.2 2.3 4.6 2.3 6.6 0 1.1 1 2.9.2 3.8-.5.6-1.7.6-2.4.6-.7.1-1.9.3-2.3-.4-.8-1.2.1-3.2-.1-4.6-.1-.8-3.4-.1-3.3.9.3 2.2-1.2 5.2 2 5.6 2.1.2 4.4-.1 6.3-.8 1-.3 1.9-.8 2.7-1.5.9-.8.6-2 .4-3-.6-2.5.6-5.3-1-7.5-1.7-2.3-5-.7-7.2-1.3-1.2-.2-1.2-1.8-1.2-2.8 0-1.2-.1-2.3-.2-3.5-.1-.9 0-1.8.6-2.4.1-.1.7-.3.7-.3.3-.1.6-.1.9-.1 1.3-.1 3.9.2 3.4 2.1-.2.9 3 .4 3.3-.5 1-3.9-6.1-3.1-8.2-2.6-1.9.5-3.9 1.6-4 3.7-.1 1 .2 2 .3 3 0 1.2-.3 2.4.2 3.5ZM40.347 16.519c-.1 1.8-.2 3.6-.2 5.4 0 .9.1 1.8.3 2.8.1.8.4 2 .2 2.8-.2.6 3 .2 3.3-.6.5-1.5-.2-3.4-.3-4.9-.1-1.5 0-2.9.1-4.4 1.7-.1 3.4-.2 5.1 0 .1 1.2.2 2.3.3 3.5.1 1 .2 1.9.2 2.9 0 .9.1 2.1-.2 2.9-.7 1.7 2.7 1.6 3.1.3.6-1.6.4-3.5.3-5.2-.3-2.2-.6-4.2-.6-6.3-.1-3.2-.6-6.3-.6-9.5 0-1.7-3.3-1.1-3.3.3 0 3 .4 6 .6 9.1v.2c-1.6 0-3.3.1-4.9.2.2-3.9-.5-7.8-.4-11.7 0-.5-3.3-.1-3.3.9-.2 3.8.4 7.5.3 11.3ZM54.447 21.819c-.3.3-.2.4 0 .5 0 1.5 0 2.9-.2 4.4-.4.6.4 1 .9 1h.1c.6 0 2.2-.3 2.3-1.1.2-1.8.2-3.5.2-5.3 1.3-1.4 2.4-3.1 3.4-4.7.6 1.2 1.2 2.5 1.7 3.9.7 2.3 1.9 4.4 2.6 6.8.5 1.5 3.8.6 3.3-.9-.7-2.3-1.9-4.5-2.6-6.8-.8-2.3-2-4.4-3-6.6.8-1.6 1.7-3.3 2.5-5 .7-1.5 1.2-3.2 2.6-4.3.5-.4.5-.8-.2-.8-.7-.1-1.7.2-2.3.6-1.3 1-2 2.2-2.7 3.6-.8 1.7-1.6 3.4-2.5 5.1-.1.1-.1.2-.2.4-.4.3-.7.6-.5 1.1-.7 1.3-1.3 2.6-2.1 3.9-.3-4.7-.8-9.3-1-14 0-1.1-3.3-.4-3.3.9.2 5.7 1 11.5 1 17.3ZM85.947 15.619c-.2-.7-1.2-.7-1.9-.6v-.8c-.1-2.2-.1-4.5-.3-6.8-.2-2.1-1.3-2.8-3.3-2.7-2 .1-4.4.4-6.3 1.2-2.2.9-3.4 2.5-3.8 4.8-.5 2.5.2 5.2.3 7.8.1 3 .1 5.9.1 8.9 0 .5 3.3 0 3.3-.9v-7c0-.7 0-1.4-.1-2.1 1.2-.5 3.1 0 4.3.1.9.1 1.8-.1 2.7-.2 0 1.9.1 3.9.2 5.9 0 1 .4 3-.3 3.8-.4.4 1.2.3 1.3.3.7-.1 1.5-.3 1.9-.9.8-.9.4-3.2.3-4.3-.1-1.6-.1-3.2-.1-4.8.8-.4 1.9-1 1.7-1.7Zm-6.6-.2c-1.9 0-3.8-.3-5.7 0-.1-1.1-.2-2.1-.3-3.2-.1-2 .1-4.7 1.9-5.9.5-.3 1.4-.3 2-.4.8-.1 1.6-.3 2.4.2 1 .7.8 3.1.8 4.1 0 1.7.2 3.4.3 5.1-.5.1-1 .1-1.4.1ZM19.147 4.119c0 .2 0 .4.1.5v.4c.1.2.2.3.4.4.3.2.7.2 1.1.2.4 0 .9-.2 1.2-.4l.2-.2c.4-.3.8-.7.6-1.1-.4-.9-.4-1.9-.3-2.9 0-.8-.8-1.1-1.5-1-.6.1-1.8.5-1.8 1.3s-.1 1.7.1 2.5c-.1.1-.1.2-.1.3ZM80.647 33.319c-1.6-.6-3.3-.6-4.9-.8-1.6-.2-3.2-.4-4.9-.6-1.6.1-3.3 0-5 .1l-4.9.3c-6.5.3-13 .3-19.5.1-6.5-.1-13-.5-19.6-.5-3.3 0-6.6.1-9.9.3-1.6.3-3.2.5-4.9.9-1.6.4-3.1.9-4.8 1 1.6.4 3.3.3 5 .3 1.6 0 3.2.1 4.9.2 3.2-.2 6.5-.2 9.7-.3 6.5 0 13 .3 19.6.5 6.5.1 13.1.2 19.7-.1l4.9-.3c1.6-.1 3.2-.1 4.8-.1 1.6-.1 3.3-.3 4.9-.5 1.7-.2 3.2-.6 4.9-.5h.1v-.6c0 .4 0 .5-.1.6Z" fill="#000"></path></svg><svg fill="none" id="logo-tablet" viewBox="0 0 114 46"><path d="M110.889 41.809c4.423.898.804-35.822.1-38.217-2.01-6.586-26.842-2.096-32.371-1.697-12.768.998-25.335-.997-37.801-.399-6.233.3-35.086-1.796-37.7 1.996C-1.91 10.676.402 29.236 1.81 38.516c-4.022.798 2.312 4.19 3.116 4.89 6.334 2.194 16.488-.2 23.123.398 15.482 1.497 31.97-2.195 47.553-.997 4.524 1.097 9.65.997 14.275 1.197 3.519 5.588 19.805-2.395 21.012-2.195.503.1-.101 0 0 0Z" fill="#000"></path><path d="M26.24 24.348c-.101-2.495-.503-5.09-.503-7.584 0-2.095.402-4.19-.302-6.186 0-.2.1-.4.1-.699.202-.998-3.116-.499-3.619.4-.301.299-.502.598-.402.897 0 .1.1.2.1.2-.602 2.993-1.507 5.987-2.512 8.88-.402 1.098-.805 2.196-1.207 3.393-.603-.998-1.106-2.095-1.608-3.193-1.307-3.293-2.514-6.586-4.122-9.679.2-1.497-3.016-1.297-3.72 0-.804 1.597-.704 3.193-.402 4.89.301 1.895.301 3.791.402 5.787 0 3.792.302 7.484.402 11.275-.301.4-.402.799-.1 1.297.2.2.301.4.502.5.905.698 3.318.1 3.318-1.198 0-3.892-.302-7.783-.402-11.675v-1.097c.1.1.1.3.2.399.604 1.497 1.207 2.993 2.112 4.39.804 1.397 1.206 2.894 1.71 4.39-.202.2-.303.4-.202.7 0 .199.1.299.201.299.603.499 1.71.299 2.413 0 .302-.1.503-.2.804-.4.302-.199.805-.598.704-1.097 0-.1-.1-.2-.1-.3.401-1.197.703-2.494.904-3.691.302-1.397.704-2.595 1.207-3.892 0 .599.1 1.197.1 1.796.201 2.395 0 4.79 0 7.184 0 .799.1 1.497.201 2.296.1.299.302 1.696.302 1.796-.603.499-.402 1.197.402 1.397.905.2 2.01-.1 2.614-.699 1.106-.998.603-2.694.301-3.991-.301-1.996.302-4.49.201-6.785ZM34.182 25.046c-.1-1.896-.704-3.692-.704-5.588 0-2.195.201-4.39-.1-6.486-.101-.698-3.82.1-3.72.998.301 1.996.2 3.991.2 5.987 0 1.896.403 3.692.704 5.588.302 1.996-.1 3.891.101 5.887.1.898.704 2.595.1 3.393-.402.499 1.408.3 1.509.3.703-.1 1.709-.4 2.211-.999.604-.798.201-2.295.1-3.193-.502-1.896-.3-3.991-.401-5.887ZM49.764 21.853c-2.01-2.594-5.63-.699-8.143-1.497-1.307-.399-1.307-2.195-1.307-3.193 0-1.397-.1-2.594-.301-3.891-.1-.998 0-1.996.703-2.794.1-.1.805-.3.805-.3.301-.1.603-.1 1.005-.1 1.508-.1 4.423.2 3.82 2.395-.301.998 3.418.4 3.72-.598 1.206-4.39-6.937-3.493-9.25-2.894-2.11.599-4.423 1.796-4.523 4.19-.1 1.198.301 2.296.301 3.393.101 1.298-.2 2.595.302 3.892 1.005 2.794 5.228 1.497 7.44 1.696 3.619.3 2.614 5.189 2.614 7.484 0 1.197 1.105 3.293.2 4.29-.603.6-1.91.7-2.613.7-.805.099-2.112.299-2.614-.4-.905-1.297.1-3.592-.1-5.089-.101-.898-3.922-.1-3.72.998.301 2.494-1.308 5.787 2.312 6.286 2.312.3 4.926-.2 7.138-.898 1.105-.399 2.211-.898 3.116-1.696 1.006-.898.704-2.195.402-3.393-.804-2.993.503-6.186-1.307-8.581ZM66.353 21.653c-.101-3.592-.704-7.084-.704-10.676 0-1.896-3.82-1.198-3.82.299 0 3.393.502 6.785.603 10.178v.2c-1.81 0-3.72.199-5.63.199.2-4.39-.603-8.78-.402-13.072 0-.598-3.72-.1-3.72.998-.201 4.191.603 8.482.402 12.673-.1 1.995-.201 3.991-.201 6.086 0 .998.201 2.096.302 3.094.1.898.502 2.195.2 3.093-.2.698 3.419.3 3.72-.699.503-1.696-.2-3.791-.402-5.488-.2-1.596 0-3.292.1-4.989 1.91-.1 3.922-.3 5.832 0l.301 3.892c.1 1.097.201 2.195.201 3.293 0 .997.1 2.395-.2 3.292-.704 1.996 3.015 1.797 3.518.3.704-1.796.503-3.992.402-5.788-.1-2.195-.502-4.59-.502-6.885ZM82.438 25.944c-.905-2.594-2.312-4.89-3.418-7.384a145.398 145.398 0 0 0 2.815-5.588c.804-1.696 1.407-3.592 2.915-4.79.503-.398.503-.798-.2-.897-.805-.1-2.012.2-2.615.698-1.407 1.098-2.312 2.395-3.016 4.091-.905 1.896-1.81 3.892-2.815 5.788-.1.1-.1.299-.2.399-.504.3-.705.698-.604 1.197-.804 1.497-1.508 2.994-2.413 4.39-.302-5.288-.905-10.477-1.106-15.765 0-1.197-3.82-.499-3.72.998.202 6.486 1.207 12.971 1.207 19.457-.302.3-.201.5.1.6 0 1.695-.1 3.292-.2 4.988-.403.699.401 1.098 1.005 1.098h.1c.704 0 2.514-.3 2.614-1.297.201-1.996.201-3.992.201-5.987 1.508-1.597 2.715-3.393 3.82-5.289.704 1.397 1.408 2.794 1.91 4.29.805 2.595 2.212 4.99 3.017 7.584.502 1.697 4.222.699 3.72-.997-.905-2.595-2.212-4.99-3.117-7.584ZM104.857 21.554c-.201-.799-1.307-.799-2.212-.699v-.998c-.1-2.494-.201-5.089-.402-7.583-.201-2.295-1.508-3.193-3.82-3.093-2.313.1-5.027.498-7.138 1.297-2.513.998-3.92 2.794-4.323 5.388-.503 2.894.201 5.887.402 8.78.1 3.294.1 6.686.1 9.98 0 .498 3.72 0 3.72-.999v-7.883c0-.798 0-1.496-.1-2.294 1.307-.6 3.519 0 4.825.1 1.106.1 2.112-.2 3.117-.3 0 2.195.1 4.39.201 6.586 0 1.097.503 3.392-.302 4.29-.402.5 1.408.3 1.508.3.805-.1 1.71-.4 2.212-.998.905-1.098.402-3.592.402-4.89-.1-1.796-.1-3.592-.1-5.388.905-.1 2.111-.798 1.91-1.596Zm-13.874-.2-.301-3.592c-.201-2.195.1-5.289 2.212-6.586.603-.399 1.608-.3 2.211-.399.905-.2 1.91-.4 2.715.2 1.106.798.904 3.492.904 4.59 0 1.895.201 3.791.302 5.687-.503.1-1.106.1-1.608.1-2.212-.1-4.424-.4-6.435 0ZM30.965 10.378c.502 0 1.005-.2 1.407-.499.1-.1.201-.1.201-.2.503-.299.905-.798.704-1.297-.503-.998-.402-2.095-.402-3.193 0-.898-.905-1.197-1.71-1.097-.703.1-2.11.598-2.11 1.397 0 .898-.101 1.895.1 2.793 0 .1-.1.2-.1.3-.101.2 0 .399.1.599v.399c.1.2.201.399.402.499.503.299 1.006.299 1.408.299Z" fill="#fff"></path></svg><svg fill="none" id="icons_arrow" viewBox="0 0 50 26"><path d="M0 11h42.3l-8.1-8.2L37 0l13 13-13 13-2.8-2.8 8.1-8.2H0v-4Z" fill="#000"></path></svg><svg fill="currentcolor" id="icons_cart" viewBox="0 0 21 18"><path d="M20.188 6.857h-3.55L13.188.381C12.985 0 12.58-.095 12.174.095s-.507.572-.304.953l3.145 5.81H5.783l3.145-5.81c.202-.381 0-.762-.305-.953-.406-.19-.811 0-1.014.286l-3.45 6.476H.812c-.406 0-.812.286-.812.762 0 .381.304.762.812.762h.202l.914 2.857c-.203.095-.305.286-.305.572 0 .38.305.666.71.666L4.058 18h12.884l1.725-5.524c.405 0 .71-.286.71-.667 0-.19-.102-.476-.304-.57l.912-2.858h.203c.406 0 .812-.286.812-.762 0-.476-.406-.762-.812-.762Zm-4.565 9.62H5.073L3.854 12.38h13.087l-1.319 4.095Zm1.623-5.525H3.348l-.812-2.666h15.522l-.812 2.666Z"></path></svg><svg fill="none" id="icons_checkbox" viewBox="0 0 33 22"><path d="M32.37 1.357 31.01 0 11.574 19.286l-9.62-9.594-1.361 1.357 9.62 9.594L11.573 22l1.459-1.357L32.37 1.357Z" fill="#000"></path></svg><svg fill="none" id="icons_design" viewBox="0 0 55 38"><path d="M49.066 1H9.933C7.715 1 6 2.681 6 4.857v19.286C6 26.319 7.715 28 9.933 28h39.133C51.286 28 53 26.319 53 24.143V4.857C53 2.78 51.184 1 49.066 1ZM9.026 25.725V3.77H49.57v21.956H9.026Z" fill="#63D1BB"></path><path d="M12.96 21.868h32.677V7.627H12.96v14.241ZM29.5 9.506c2.925 0 5.346 2.373 5.346 5.242 0 2.868-2.421 5.241-5.346 5.241-2.925 0-5.346-2.373-5.346-5.242 0-2.967 2.421-5.241 5.346-5.241Z" fill="#63D1BB"></path></svg><svg fill="none" id="icons_eco" viewBox="0 0 55 38"><path d="M30.5 38C39.575 38 47 30.645 47 21.656c-9.075 0-16.5 7.253-16.5 16.344ZM18.744 16.65c0 2.554 2.062 4.495 4.537 4.495.928 0 1.857-.306 2.578-.817v.306c0 2.554 2.063 4.495 4.538 4.495 2.578 0 4.537-2.043 4.537-4.495v-.306c.722.51 1.65.817 2.579.817 2.578 0 4.537-2.043 4.537-4.494 0-1.84-1.031-3.371-2.578-4.086 1.547-.715 2.578-2.248 2.578-4.087 0-2.553-2.063-4.494-4.537-4.494-.929 0-1.857.306-2.579.817v-.306C34.934 1.94 32.872 0 30.397 0c-2.578 0-4.538 2.043-4.538 4.495V4.8a4.542 4.542 0 0 0-2.578-.817c-2.578 0-4.537 2.043-4.537 4.494 0 1.84 1.031 3.372 2.578 4.087-1.444.715-2.578 2.247-2.578 4.086ZM30.5 7.969c2.578 0 4.538 2.043 4.538 4.494 0 2.554-2.063 4.495-4.538 4.495-2.578 0-4.538-2.043-4.538-4.495 0-2.451 1.96-4.494 4.538-4.494ZM14 21.656C14 30.646 21.425 38 30.5 38c0-9.091-7.425-16.344-16.5-16.344Z" fill="#63D1BB"></path></svg><svg fill="none" id="icons_flag" viewBox="0 0 47 81"><path d="M7.766 3.862v38.52L47 23.071 7.766 3.862ZM0 80.9V0h3.833v80.9H0Z" fill="#63D1BB"></path><path d="M3.833.1H0V81h3.833V.1Z" fill="#231F20"></path></svg><svg fill="none" id="icons_gift" viewBox="0 0 55 38"><path d="M12.027 34h12.615V20.272H12.028V34Zm28.358-23.309h-7.367c.505-.296 1.01-.494 1.413-.79 1.615-1.086 2.422-2.568 2.422-3.95 0-1.186-.605-2.173-1.413-2.865C34.633 2.395 33.523 2 32.413 2c-1.211 0-2.422.395-3.33 1.086-1.514.988-2.624 2.47-3.432 4.05 0 .099-.1.197-.1.197-.303-.592-.606-1.185-1.01-1.777-.706-.988-1.514-1.877-2.523-2.47C21.01 2.494 19.9 2 18.688 2c-1.21 0-2.321.494-3.23 1.284-.807.79-1.412 1.876-1.412 3.062 0 .691.202 1.481.605 2.173.606.888 1.413 1.58 2.624 2.172h-6.66c-.909 0-1.615.692-1.615 1.58V18.1h15.541V10.69h1.918V18.1H42v-5.827c0-.89-.706-1.58-1.615-1.58ZM17.881 8.42c-.606-.395-1.01-.79-1.211-1.087-.202-.395-.303-.691-.303-.987 0-.494.202-.988.706-1.482.404-.395 1.01-.691 1.615-.691.707 0 1.413.197 2.018.691a7.6 7.6 0 0 1 2.624 3.16c.303.692.606 1.383.808 2.075-3.129-.297-5.147-.988-6.257-1.68Zm10.596-1.58c.606-.79 1.211-1.482 1.918-1.877.706-.494 1.412-.691 2.018-.691.605 0 1.11.197 1.514.493.403.297.605.692.605 1.186 0 .493-.303 1.284-1.514 2.074-1.11.79-3.128 1.679-6.156 2.271a10.88 10.88 0 0 1 1.615-3.456ZM26.46 34h12.614V20.272H26.46V34Z" fill="#63D1BB"></path></svg><svg fill="none" id="icons_handmade" viewBox="0 0 55 38"><path d="M9.306 16.953a16.044 16.044 0 0 0 0 6.232l4.176-3.165-4.176-3.067ZM33.852 4.586c-4.889-2.176-10.593-2.176-15.583.396l7.639 5.54 7.944-5.936ZM43.528 16.062l-4.889 3.66 4.99 3.66c.51-2.373.51-4.946-.101-7.32ZM18.37 35.057c4.89 2.473 10.899 2.671 15.991.099l-8.25-6.035-7.74 5.936ZM17.046 17.249l-6.314-4.551c-.306.692-.612 1.385-.815 2.078l5.398 3.957 1.731-1.484ZM27.945 27.835l8.453 6.134c.306-.198.611-.396.815-.594.306-.198.611-.495.917-.791l-8.454-6.134-1.731 1.385ZM20.611 14.578l-7.537-5.441c-.51.495-.917 1.088-1.324 1.682l7.028 5.144 1.833-1.385ZM31.51 25.163l8.25 6.035c.509-.494.916-1.088 1.324-1.681l-7.843-5.739-1.732 1.386ZM24.176 11.907l-7.843-5.738c-.203.099-.407.297-.61.396-.408.296-.816.593-1.121.989l7.843 5.64 1.731-1.287ZM35.074 22.394l7.13 5.144c.306-.692.611-1.286.917-1.979l-6.213-4.55-1.834 1.385ZM35.89 5.674 9.916 25.362c.203.692.509 1.385.815 2.077L37.721 6.96c-.509-.494-1.12-.89-1.833-1.286ZM40.269 9.532c-.306-.395-.611-.791-.917-1.088l-27.5 20.776c.204.494.51.89.815 1.187.101.198.305.396.407.494l27.704-20.775c-.204-.198-.306-.396-.51-.594ZM41.898 11.907 14.704 32.484c.509.495 1.12.99 1.731 1.386l26.482-19.985c-.306-.692-.611-1.385-1.019-1.978Z" fill="#63D1BB"></path></svg><svg fill="none" id="icons_heart" viewBox="0 0 55 38"><path d="M47 14.45C47 9.788 42.982 6 38.036 6A9.248 9.248 0 0 0 30 10.662C28.558 7.942 25.467 6 21.964 6 17.018 6 13 9.788 13 14.45 13 23.288 28.145 33 30 33c1.958 0 17-9.615 17-18.55Z" fill="#63D1BB"></path></svg><svg fill="none" id="icons_interior" viewBox="0 0 41 62"><g opacity=".5" fill="#149080"><path d="M15.502 37.756c-.306.994-.204 2.186 0 3.577.51 2.584 1.734 5.962 2.448 9.638h5.202c.714-3.577 1.938-6.955 2.55-9.638.305-1.39.305-2.682 0-3.577-.307-.894-.919-1.59-2.04-2.285h-6.12c-1.224.696-1.836 1.391-2.04 2.285ZM27.537 57.628H13.463c-1.326 0-2.346.994-2.346 2.186V62H29.883v-2.186c0-1.192-1.02-2.186-2.346-2.186ZM34.779 2.286H22.846C22.846 1.094 21.826.1 20.5.1s-2.346.994-2.346 2.186H6.221L0 27.622c.816-.496 1.632-.993 2.652-.993 1.428 0 2.244.795 2.957 1.39.714.597 1.224.796 1.428.796.306 0 .816-.298 1.53-.795.714-.497 1.632-1.391 2.958-1.391 1.326 0 2.244.795 2.958 1.39.713.498 1.223.796 1.53.796.101 0 .305-.1.611-.199.204-.1.51-.397.918-.596.51-.398 1.122-.994 2.04-1.192.306-.1.612-.1.918-.1 1.326 0 2.244.795 2.958 1.391.714.497 1.224.795 1.53.795.306 0 .816-.298 1.427-.795.714-.596 1.632-1.39 2.958-1.39 1.428 0 2.244.794 2.958 1.39.306.298.612.497.918.596.204.1.408.2.612.2.306 0 .816-.299 1.428-.895.713-.596 1.631-1.391 2.957-1.391 1.02 0 1.836.497 2.652.993l-6.12-25.336ZM23.968 53.157H16.93c-.714 0-1.122.497-1.122 1.093s.51 1.093 1.122 1.093h7.038c.713 0 1.121-.497 1.121-1.093.102-.596-.407-1.093-1.121-1.093Z"></path><path d="M20.5 28.814c-.102 0-.306.1-.612.199-.204.1-.408.298-.612.397v3.677h2.346V29.51c-.51-.398-.918-.696-1.122-.696Z"></path></g></svg><svg fill="none" id="icons_mail" viewBox="0 0 32 21"><path opacity=".2" d="M28 0H4C1.8 0 0 1.8 0 4v13c0 2.2 1.8 4 4 4h24c2.2 0 4-1.8 4-4V4c0-2.2-1.8-4-4-4ZM2 5.3l7 5.3-7 5.3V5.3ZM30 17c0 1.1-.9 2-2 2H4c-1.1 0-2-.9-2-2l7.8-5.9 4.4 3.3c.5.4 1.2.6 1.8.6.6 0 1.3-.2 1.8-.6l4.4-3.3L30 17Zm0-1.2-7-5.3 7-5.3v10.6Zm-12.8-2.2c-.4.3-.8.4-1.2.4-.4 0-.9-.1-1.2-.4l-4.1-3.1-.8-.6L2 4c0-1.1.9-2 2-2h24c1.1 0 2 .9 2 2l-12.8 9.6Z" fill="#000"></path></svg><svg fill="none" id="icons_phone" viewBox="0 0 25 24"><g opacity=".2" fill="#000"><path d="M17.44 24h-1.11c-4.939-.593-8.568-2.864-11.189-5.728C2.521 15.408.403 11.753 0 6.716V5.333c.1-.888.504-1.481 1.109-2.074.605-.69 1.613-1.481 2.52-1.58.706 0 1.815.494 2.218 1.087.403.493.605 1.58.806 2.37.202.889.605 1.975.504 2.765-.201 1.186-1.814 1.68-2.217 2.568 1.612 3.655 4.133 6.42 7.56 8.198.806-.494 1.613-1.877 2.823-1.877.403 0 1.008.198 1.41.297.505.098.908.296 1.311.493.706.297 2.017.593 2.42 1.186.403.592.705 1.58.605 2.172-.303 1.284-2.42 2.667-3.63 3.062ZM12.6 1.481c5.948 0 10.888 4.741 10.888 10.667H25C25 5.432 19.456 0 12.6 0v1.481Z"></path><path d="M12.6 9.185v1.58c.807 0 1.412.593 1.412 1.383h1.613c0-1.58-1.31-2.963-3.024-2.963ZM12.6 6.124c3.327 0 6.15 2.666 6.15 6.024h1.613c0-4.148-3.427-7.506-7.661-7.506v1.482H12.6Z"></path></g></svg><svg fill="none" id="icons_play" viewBox="0 0 101 77"><path d="M97 18.1s-.9-7-3.8-10.1c-3.6-4-7.7-4.1-9.5-4.3-13.3-1-33.3-1-33.3-1h-.1s-20 0-33.3 1c-1.9.2-5.9.3-9.5 4.3-2.8 3.1-3.8 10.1-3.8 10.1s-.9 8.2-.9 16.4v7.7c0 8.2.9 16.4.9 16.4s.9 7 3.8 10.1c3.6 4 8.4 3.9 10.5 4.3 7.6.8 32.4 1 32.4 1s20 0 33.3-1c1.9-.2 5.9-.3 9.5-4.3C96 65.6 97 58.6 97 58.6s.9-8.2.9-16.4v-7.7c0-8.2-.9-16.4-.9-16.4Z" fill="#63D1BB"></path><path d="M50.3 76.8c-1 0-25-.3-32.6-1h-.2c-.3-.1-.7-.1-1.1-.2-2.5-.3-7.2-.9-10.8-5C2.2 67 1.2 59.8 1.1 59c0-.3-1-8.5-1-16.7v-7.7c0-8.3.9-16.4.9-16.7v-.1c.1-.8 1.2-7.9 4.5-11.6 4-4.4 8.5-4.9 10.7-5.1.2 0 .4 0 .5-.1h.1c13.3-1 33.3-1 33.5-1h.1c.2 0 20.2 0 33.5 1h.1c.2 0 .3 0 .5.1 2.2.2 6.7.7 10.7 5.1 3.4 3.6 4.4 10.8 4.5 11.6 0 .3 1 8.5 1 16.8v7.7c0 8.3-.9 16.4-1 16.7v.1c-.1.8-1.2 8-4.5 11.6-4 4.4-8.5 4.9-10.7 5.1-.2 0-.4 0-.5.1h-.1c-13.3.9-33.4.9-33.6.9Zm-31.9-6.4c7.5.7 31.2 1 32 1 .7 0 20.1 0 33-1 .2 0 .4 0 .6-.1 1.8-.2 4.6-.5 7.2-3.3 1.8-2 2.9-6.9 3.1-8.6.1-.5.9-8.4.9-16.1v-7.7c0-7.8-.9-15.6-1-16.1-.3-2.4-1.4-6.8-3.1-8.5-2.6-2.9-5.4-3.1-7.2-3.3-.2 0-.4 0-.6-.1-13.1-1-32.8-1-33-1h-.1c-.2 0-20 0-33 1-.2 0-.4 0-.6.1-1.8.2-4.6.5-7.2 3.3-1.8 2-2.9 6.9-3.1 8.6-.1.6-.9 8.4-.9 16.1v7.7c0 7.7.9 15.6.9 16.1.3 2.4 1.4 6.8 3.1 8.5 2.3 2.6 5.3 3 7.5 3.3.6-.1 1 0 1.5.1Z" fill="#fff"></path><path d="M38.4 20.5v35.7l29.8-17.8-29.8-17.9Z" fill="#fff"></path></svg><svg fill="none" id="icons_rocket" viewBox="0 0 55 38"><path d="M40.947 10.75A47.824 47.824 0 0 0 28.41 9.065c-2.932 0-5.56.198-7.785.594L13.75 5H.101l5.864 6.147h8.493c-4.651 1.586-6.875 3.47-6.875 3.47v3.767s2.325 1.883 6.976 3.47H5.864L0 28h13.649l6.875-4.66c2.325.397 4.853.595 7.785.595 4.55 0 8.796-.694 12.537-1.685-1.214-1.785-1.921-3.668-1.921-5.85.1-1.982.91-3.865 2.022-5.65ZM44.485 11.741c-1.314 1.586-2.022 3.173-2.022 4.759 0 1.586.708 3.172 2.022 4.759C50.955 19.077 55 16.498 55 16.498s-4.044-2.577-10.515-4.758Z" fill="#63D1BB"></path></svg><svg fill="currentcolor" id="icons_search" viewBox="0 0 18 18"><path d="m17.693 16.057-3.477-3.477c1.023-1.33 1.534-2.966 1.534-4.705C15.75 3.477 12.273 0 7.875 0S0 3.477 0 7.875s3.477 7.875 7.875 7.875c1.739 0 3.375-.614 4.704-1.534l3.478 3.477c.204.205.409.307.818.307.614 0 1.125-.511 1.125-1.125 0-.204-.102-.511-.307-.818ZM2.25 7.875c0-3.068 2.557-5.625 5.625-5.625S13.5 4.807 13.5 7.875 10.943 13.5 7.875 13.5 2.25 10.943 2.25 7.875Z"></path></svg><svg fill="none" id="icons_telegram" viewBox="0 0 28 23"><path fill-rule="evenodd" clip-rule="evenodd" d="M23.46 3.653c.18.15.265.382.227.611l-2.626 15.757a.657.657 0 0 1-1.012.439l-7.878-5.253a.657.657 0 0 1-.149-.956l2.611-3.263-4.36 2.906a.657.657 0 0 1-.658.041L4.363 11.31a.657.657 0 0 1 .073-1.205l18.383-6.566a.657.657 0 0 1 .642.115Zm-17.134 7.17 3.536 1.768 7.561-5.041a.656.656 0 0 1 .877.956l-4.805 6.006 6.438 4.292L22.208 5.15 6.326 10.823Z" fill="#231F20"></path></svg><svg fill="none" id="icons_toy" viewBox="0 0 60 60"><path opacity=".5" d="M0 43.993 27.4 60V36.544L0 20.436v23.557Zm51.3-31.51V15c0 1.812-3.5 3.322-7.7 3.322-4.3 0-7.7-1.51-7.7-3.322v-4.127c.3 1.71 3.6 3.12 7.7 3.12 4.3 0 7.7-1.51 7.7-3.322S47.8 7.35 43.6 7.35h-1l-5-2.92V7.55c0 1.812-3.5 3.323-7.7 3.323-2.7 0-5-.604-6.4-1.51-.2-.202-.4-.403-.7-.605-.4-.402-.6-.805-.6-1.208V4.53L17.4 7.35h-1.1c-4.3 0-7.7 1.51-7.7 3.322s3.5 3.322 7.7 3.322c4.1 0 7.4-1.41 7.7-3.12V15c0 1.812-3.5 3.322-7.7 3.322-4.3 0-7.7-1.51-7.7-3.322v-2.416l-6 3.523 27.5 16.108 27.4-16.007-6.2-3.725ZM37.7 22.752c0 1.812-3.5 3.322-7.7 3.322-4.3 0-7.7-1.51-7.7-3.322v-4.128c.3 1.712 3.6 3.121 7.7 3.121s7.4-1.41 7.7-3.12v4.127Zm-5.1 13.993V60L60 43.993V20.738L32.6 36.745Zm-2.7-30.1c4.3 0 7.7-1.51 7.7-3.323C37.6 1.51 34.1 0 29.9 0c-4.3 0-7.7 1.51-7.7 3.322s3.4 3.322 7.7 3.322Z" fill="#149080"></path></svg><svg fill="none" id="icons_video" viewBox="0 0 32 22"><path d="m26 10 6-4v16l-6-4v-8Zm-2 0v8c0 2.2-1.8 4-4 4H4c-2.2 0-4-1.8-4-4v-8c0-2.2 1.8-4 4-4h10c0-1.1.9-2 2-2V2H5c-.6 0-1-.4-1-1s.4-1 1-1h12c.6 0 1 .4 1 1v3c1.1 0 2 .9 2 2 2.2 0 4 1.8 4 4Zm-12 0H4v8h8v-8Zm8 1c0-.6-.4-1-1-1h-4c-.6 0-1 .4-1 1s.4 1 1 1h4c.6 0 1-.4 1-1Z" fill="#63D1BB"></path></svg><svg fill="none" id="icons_vk" viewBox="0 0 28 23"><path d="M1 5.839c0-.855.515-1.316 1.545-1.383l3.97.025a.52.52 0 0 1 .533.377c.409 1.257.866 2.343 1.372 3.257.506.913 1.168 1.965 1.985 3.156.071.15.187.226.346.226.125 0 .223-.059.293-.176l.08-.277.027-4.35c0-.302-.075-.503-.226-.604-.151-.1-.431-.176-.84-.226-.32-.05-.48-.235-.48-.553 0-.067.01-.118.027-.151.373-1.09 1.44-1.635 3.198-1.635l1.492-.025c.675 0 1.234.16 1.678.478.444.318.666.821.666 1.509v5.708c.125.084.24.126.347.126.266 0 .497-.15.692-.453 1.954-2.582 3.011-4.308 3.17-5.18 0-.017.019-.059.054-.126.125-.251.329-.47.613-.654.284-.184.533-.31.746-.377a.554.554 0 0 1 .24-.05h4.13l.266.025c.355 0 .63.16.826.478.07.1.12.21.146.327.027.117.045.234.054.352.009.117.013.184.013.2v.177c-.124.687-.44 1.42-.946 2.2-.506.78-1.15 1.622-1.931 2.528-.782.905-1.27 1.5-1.466 1.785-.16.201-.24.386-.24.553 0 .135.071.286.213.453l3.89 4.627c.213.269.32.562.32.88 0 .386-.16.705-.48.956-.32.252-.701.394-1.145.428l-.453.025h-4.05a.855.855 0 0 0-.106.012.862.862 0 0 1-.107.013c-.39 0-.755-.16-1.092-.478-.125-.134-.96-1.123-2.505-2.967a1.387 1.387 0 0 0-.373-.327c-.07.268-.164.654-.28 1.157-.115.503-.2.863-.253 1.081l-.08.427c-.177.587-.55.94-1.119 1.057l-.373.025h-2.61c-1.475 0-2.945-.637-4.41-1.911-1.466-1.275-2.784-2.922-3.957-4.942-1.172-2.02-2.264-4.372-3.277-7.054A1.916 1.916 0 0 1 1 5.838Zm16.013 6.513c-.373 0-.71-.096-1.013-.29-.302-.192-.453-.456-.453-.791V5.487c0-.336-.089-.575-.266-.717-.178-.143-.489-.214-.933-.214l-1.518.05c-.764 0-1.341.126-1.732.378.781.352 1.172.922 1.172 1.71v4.426a1.5 1.5 0 0 1-.533 1.044 1.59 1.59 0 0 1-1.066.414c-.532 0-.94-.243-1.225-.729C8.06 9.871 7.03 7.993 6.356 6.216l-.24-.654-3.544-.025c-.231 0-.36.013-.386.038-.027.025-.04.096-.04.213 0 .151.017.31.053.478l.56 1.409c1.491 3.638 3.112 6.505 4.862 8.6 1.75 2.096 3.468 3.144 5.155 3.144h2.665c.106 0 .186-.03.24-.088.053-.06.097-.172.133-.34l.053-.251.506-2.213c.142-.302.267-.503.373-.604a.975.975 0 0 1 .693-.277c.426 0 .861.243 1.305.73l2.265 2.716c.142.218.293.327.453.327h4.396c.533 0 .8-.126.8-.378a.466.466 0 0 0-.08-.251l-3.864-4.552c-.302-.352-.453-.73-.453-1.131 0-.403.142-.788.427-1.157.23-.336.679-.893 1.345-1.673a37.64 37.64 0 0 0 1.745-2.188c.498-.679.826-1.295.986-1.848l.08-.327a.371.371 0 0 1-.027-.163.574.574 0 0 0-.026-.189h-4.183c-.267.1-.48.252-.64.453l-.16.478c-.444 1.156-1.607 2.942-3.49 5.356a1.892 1.892 0 0 1-1.305.503Z" fill="#231F20"></path></svg><svg fill="none" id="icons_youtube" viewBox="0 0 28 23"><path d="m17.85 11.293-5.236-3.491a.655.655 0 0 0-1.014.545v6.982a.654.654 0 0 0 1.014.546l5.237-3.491a.655.655 0 0 0 0-1.091Zm-4.94 2.814V9.57l3.403 2.27-3.404 2.268Zm12.48-8.563a2.4 2.4 0 0 0-1.452-1.637C20.218 2.478 14.251 2.5 14 2.5c-.25 0-6.218-.022-9.938 1.407A2.4 2.4 0 0 0 2.61 5.544C2.327 6.613 2 8.576 2 11.838c0 3.262.327 5.226.61 6.295a2.4 2.4 0 0 0 1.452 1.636c3.72 1.43 9.687 1.407 9.938 1.407h.076c.753 0 6.317-.043 9.862-1.407a2.4 2.4 0 0 0 1.451-1.636c.284-1.07.611-3.033.611-6.295s-.327-5.225-.61-6.294Zm-1.266 12.261a1.09 1.09 0 0 1-.655.742c-3.49 1.342-9.404 1.32-9.469 1.32-.066 0-5.978.022-9.47-1.32a1.09 1.09 0 0 1-.654-.742c-.261-1.003-.567-2.847-.567-5.967 0-3.12.306-4.963.567-5.967a1.09 1.09 0 0 1 .655-.742C8.02 3.787 13.935 3.81 14 3.81c.066 0 5.978-.022 9.47 1.32a1.092 1.092 0 0 1 .654.742c.262 1.004.567 2.847.567 5.967 0 3.12-.305 4.964-.567 5.967Z" fill="#231F20"></path></svg></svg>