<svg width="55" height="38" viewBox="0 0 55 38" fill="none" xmlns="http://www.w3.org/2000/svg">
<path d="M49.0665 1H9.93347C7.71459 1 6 2.68132 6 4.85714V24.1429C6 26.3187 7.71459 28 9.93347 28H49.0665C51.2854 28 53 26.3187 53 24.1429V4.85714C53 2.78022 51.1845 1 49.0665 1ZM9.02575 25.7253V3.76923H49.5708V25.7253H9.02575Z" fill="#63D1BB"/>
<path d="M12.9593 21.8683H45.6374V7.62659H12.9593V21.8683ZM29.5 9.50571C32.4249 9.50571 34.8455 11.8793 34.8455 14.7475C34.8455 17.6156 32.4249 19.9892 29.5 19.9892C26.5751 19.9892 24.1545 17.6156 24.1545 14.7475C24.1545 11.7804 26.5751 9.50571 29.5 9.50571Z" fill="#63D1BB"/>
</svg>
