<svg width="55" height="38" viewBox="0 0 55 38" fill="none" xmlns="http://www.w3.org/2000/svg">
<path d="M30.5 38C39.575 38 47 30.6452 47 21.6559C37.925 21.6559 30.5 28.9086 30.5 38ZM18.7438 16.6505C18.7438 19.2043 20.8063 21.1452 23.2812 21.1452C24.2094 21.1452 25.1375 20.8387 25.8594 20.328V20.6344C25.8594 23.1882 27.9219 25.129 30.3969 25.129C32.975 25.129 34.9344 23.086 34.9344 20.6344V20.328C35.6562 20.8387 36.5844 21.1452 37.5125 21.1452C40.0906 21.1452 42.05 19.1021 42.05 16.6505C42.05 14.8118 41.0188 13.2796 39.4719 12.5645C41.0188 11.8495 42.05 10.3172 42.05 8.47849C42.05 5.92473 39.9875 3.98387 37.5125 3.98387C36.5844 3.98387 35.6562 4.29032 34.9344 4.80107V4.49462C34.9344 1.94086 32.8719 0 30.3969 0C27.8187 0 25.8594 2.04301 25.8594 4.49462V4.80107C25.1375 4.29032 24.2094 3.98387 23.2812 3.98387C20.7031 3.98387 18.7438 6.02688 18.7438 8.47849C18.7438 10.3172 19.775 11.8495 21.3219 12.5645C19.8781 13.2796 18.7438 14.8118 18.7438 16.6505ZM30.5 7.96774C33.0781 7.96774 35.0375 10.0108 35.0375 12.4624C35.0375 15.0161 32.975 16.957 30.5 16.957C27.9219 16.957 25.9625 14.914 25.9625 12.4624C25.9625 10.0108 27.9219 7.96774 30.5 7.96774ZM14 21.6559C14 30.6452 21.425 38 30.5 38C30.5 28.9086 23.075 21.6559 14 21.6559Z" fill="#63D1BB"/>
</svg>
