<svg width="55" height="38" viewBox="0 0 55 38" fill="none" xmlns="http://www.w3.org/2000/svg">
<path d="M12.0275 34H24.6422V20.2716H12.0275V34ZM40.3853 10.6914H33.0183C33.5229 10.3951 34.0275 10.1975 34.4312 9.90123C36.0459 8.81481 36.8532 7.33333 36.8532 5.95062C36.8532 4.76543 36.2477 3.77777 35.4404 3.08641C34.633 2.39505 33.5229 2 32.4128 2C31.2018 2 29.9908 2.39505 29.0826 3.08641C27.5688 4.07406 26.4587 5.55555 25.6514 7.1358C25.6514 7.23456 25.5505 7.33333 25.5505 7.33333C25.2477 6.74073 24.945 6.14814 24.5413 5.55555C23.8349 4.56789 23.0275 3.679 22.0183 3.08641C21.0092 2.49382 19.8991 2 18.6881 2C17.4771 2 16.367 2.49383 15.4587 3.28395C14.6514 4.07408 14.0459 5.16049 14.0459 6.34567C14.0459 7.03703 14.2477 7.82715 14.6514 8.51851C15.2569 9.4074 16.0642 10.0988 17.2752 10.6914H10.6147C9.70641 10.6914 9 11.3827 9 12.2716V18.0988H24.5413V10.6914H26.4587V18.0988H42V12.2716C42 11.3827 41.2936 10.6914 40.3853 10.6914ZM17.8807 8.41975C17.2752 8.02469 16.8716 7.62962 16.6697 7.33333C16.4679 6.93826 16.367 6.64197 16.367 6.34567C16.367 5.85184 16.5688 5.35802 17.0734 4.86419C17.4771 4.46913 18.0826 4.17284 18.6881 4.17284C19.3945 4.17284 20.1009 4.37036 20.7064 4.86419C21.7156 5.55555 22.7248 6.64196 23.3303 8.02468C23.633 8.71604 23.9358 9.4074 24.1376 10.0988C21.0092 9.80246 18.9908 9.11111 17.8807 8.41975ZM28.4771 6.8395C29.0826 6.04938 29.6881 5.35802 30.3945 4.96296C31.1009 4.46914 31.8073 4.27161 32.4128 4.27161C33.0183 4.27161 33.5229 4.46914 33.9266 4.76543C34.3303 5.06173 34.5321 5.45679 34.5321 5.95062C34.5321 6.44444 34.2294 7.23456 33.0183 8.02468C31.9083 8.8148 29.8899 9.7037 26.8624 10.2963C27.1651 9.1111 27.7706 7.82715 28.4771 6.8395ZM26.4587 34H39.0734V20.2716H26.4587V34Z" fill="#63D1BB"/>
</svg>
