<svg width="55" height="38" viewBox="0 0 55 38" fill="none" xmlns="http://www.w3.org/2000/svg">
<path d="M9.30556 16.9528C8.89815 19.0303 8.89815 21.1079 9.30556 23.1854L13.4815 20.0196L9.30556 16.9528Z" fill="#63D1BB"/>
<path d="M33.852 4.586C28.9631 2.40951 23.2594 2.40951 18.2686 4.98172L25.9075 10.5219L33.852 4.586Z" fill="#63D1BB"/>
<path d="M43.528 16.062L38.6391 19.7225L43.6299 23.3829C44.1392 21.0086 44.1392 18.4364 43.528 16.062Z" fill="#63D1BB"/>
<path d="M18.3705 35.057C23.2594 37.5303 29.2687 37.7281 34.3613 35.1559L26.1113 29.1211L18.3705 35.057Z" fill="#63D1BB"/>
<path d="M17.0464 17.2488L10.7315 12.698C10.426 13.3905 10.1204 14.083 9.9167 14.7756L15.3149 18.7328L17.0464 17.2488Z" fill="#63D1BB"/>
<path d="M27.9446 27.8349L36.3983 33.9686C36.7039 33.7707 37.0095 33.5729 37.2132 33.375C37.5187 33.1772 37.8243 32.8804 38.1298 32.5836L29.6761 26.4498L27.9446 27.8349Z" fill="#63D1BB"/>
<path d="M20.6112 14.5781L13.0741 9.13684C12.5649 9.6315 12.1574 10.2251 11.75 10.8187L18.7779 15.9631L20.6112 14.5781Z" fill="#63D1BB"/>
<path d="M31.5094 25.1635L39.7595 31.1983C40.2688 30.7036 40.6762 30.11 41.0836 29.5165L33.2409 23.7784L31.5094 25.1635Z" fill="#63D1BB"/>
<path d="M24.176 11.907L16.3334 6.16895C16.1297 6.26788 15.926 6.46574 15.7223 6.56467C15.3149 6.86146 14.9075 7.15826 14.6019 7.55398L22.4446 13.1931L24.176 11.907Z" fill="#63D1BB"/>
<path d="M35.0743 22.3936L42.204 27.538C42.5095 26.8455 42.8151 26.2519 43.1206 25.5594L36.9076 21.0085L35.0743 22.3936Z" fill="#63D1BB"/>
<path d="M35.8891 5.67419L9.9167 25.3615C10.1204 26.054 10.426 26.7466 10.7315 27.4391L37.7225 6.9603C37.2132 6.46564 36.6021 6.06992 35.8891 5.67419Z" fill="#63D1BB"/>
<path d="M40.2688 9.53234C39.9632 9.13661 39.6576 8.74089 39.3521 8.44409L11.8519 29.2197C12.0556 29.7143 12.3611 30.11 12.6667 30.4068C12.7685 30.6047 12.9722 30.8026 13.0741 30.9015L40.778 10.1259C40.5743 9.92806 40.4725 9.7302 40.2688 9.53234Z" fill="#63D1BB"/>
<path d="M41.8984 11.9067L14.7037 32.4844C15.213 32.9791 15.8241 33.4738 16.4352 33.8695L42.9169 13.8854C42.6114 13.1928 42.3058 12.5003 41.8984 11.9067Z" fill="#63D1BB"/>
</svg>
