<svg width="55" height="38" viewBox="0 0 55 38" fill="none" xmlns="http://www.w3.org/2000/svg">
<path d="M40.9467 10.75C37.307 9.75864 33.0607 9.06466 28.41 9.06466C25.478 9.06466 22.8493 9.26294 20.625 9.65949L13.75 5H0.10114L5.9651 11.1466H14.4577C9.80697 12.7328 7.58272 14.6164 7.58272 14.6164V18.3836C7.58272 18.3836 9.90811 20.2672 14.5588 21.8534H5.86396L0 28H13.6489L20.5239 23.3405C22.8492 23.7371 25.3768 23.9354 28.3088 23.9354C32.8584 23.9354 37.1048 23.2414 40.8456 22.25C39.6324 20.4655 38.9246 18.5819 38.9246 16.4009C39.0257 14.4181 39.8345 12.5345 40.9467 10.75Z" fill="#63D1BB"/>
<path d="M44.4853 11.7412C43.1709 13.3274 42.4632 14.9136 42.4632 16.4998C42.4632 18.086 43.1709 19.6722 44.4853 21.2585C50.9559 19.0774 55 16.4998 55 16.4998C55 16.4998 50.9559 13.9222 44.4853 11.7412Z" fill="#63D1BB"/>
</svg>
