<svg width="33" height="28" viewBox="0 0 33 28" fill="none" xmlns="http://www.w3.org/2000/svg">
<g filter="url(#filter0_d_35613_133)">
<path d="M20.5921 10.7927L15.3558 7.30184C15.2572 7.23691 15.1428 7.19985 15.0249 7.19459C14.907 7.18934 14.7898 7.21608 14.6858 7.27198C14.5818 7.32789 14.4949 7.41087 14.4342 7.51215C14.3736 7.61343 14.3414 7.72924 14.3412 7.84729V14.8291C14.3413 14.9481 14.3739 15.0648 14.4354 15.1667C14.4969 15.2686 14.5851 15.3518 14.6903 15.4073C14.7937 15.4631 14.9103 15.4895 15.0276 15.4837C15.1449 15.478 15.2584 15.4402 15.3558 15.3746L20.5921 11.8837C20.6821 11.8239 20.756 11.7429 20.807 11.6477C20.8581 11.5526 20.8849 11.4462 20.8849 11.3382C20.8849 11.2302 20.8581 11.1239 20.807 11.0287C20.756 10.9335 20.6821 10.8525 20.5921 10.7927ZM15.6503 13.6073V9.06911L19.0539 11.3382L15.6503 13.6073ZM28.1303 5.04366C28.0354 4.67547 27.8543 4.33511 27.6021 4.05061C27.3498 3.76611 27.0336 3.54561 26.6794 3.40729C22.9594 1.9782 16.9921 2.00002 16.7412 2.00002C16.4903 2.00002 10.523 1.9782 6.80303 3.40729C6.44885 3.54561 6.13261 3.76611 5.88036 4.05061C5.6281 4.33511 5.44705 4.67547 5.35212 5.04366C5.06848 6.11275 4.74121 8.07638 4.74121 11.3382C4.74121 14.6 5.06848 16.5637 5.35212 17.6327C5.44705 18.0009 5.6281 18.3413 5.88036 18.6258C6.13261 18.9103 6.44885 19.1308 6.80303 19.2691C10.523 20.6982 16.4903 20.6764 16.7412 20.6764H16.8176C17.5703 20.6764 23.1339 20.6327 26.6794 19.2691C27.0336 19.1308 27.3498 18.9103 27.6021 18.6258C27.8543 18.3413 28.0354 18.0009 28.1303 17.6327C28.4139 16.5637 28.7412 14.6 28.7412 11.3382C28.7412 8.07638 28.4139 6.11275 28.1303 5.04366ZM26.8648 17.3055C26.8219 17.472 26.7402 17.6259 26.6265 17.7548C26.5127 17.8838 26.3701 17.984 26.2103 18.0473C22.7194 19.3891 16.8067 19.3673 16.7412 19.3673C16.6758 19.3673 10.763 19.3891 7.27212 18.0473C7.11228 17.984 6.96967 17.8838 6.85592 17.7548C6.74217 17.6259 6.6605 17.472 6.61757 17.3055C6.35576 16.3018 6.0503 14.4582 6.0503 11.3382C6.0503 8.2182 6.35576 6.37457 6.61757 5.37093C6.6605 5.20445 6.74217 5.05047 6.85592 4.92156C6.96967 4.79264 7.11228 4.69243 7.27212 4.62911C10.763 3.28729 16.6758 3.30911 16.7412 3.30911C16.8067 3.30911 22.7194 3.28729 26.2103 4.62911C26.3701 4.69243 26.5127 4.79264 26.6265 4.92156C26.7402 5.05047 26.8219 5.20445 26.8648 5.37093C27.1267 6.37457 27.4321 8.2182 27.4321 11.3382C27.4321 14.4582 27.1267 16.3018 26.8648 17.3055Z" fill="#231F20"/>
</g>
<defs>
<filter id="filter0_d_35613_133" x="-1.25879" y="0" width="36" height="30" filterUnits="userSpaceOnUse" color-interpolation-filters="sRGB">
<feFlood flood-opacity="0" result="BackgroundImageFix"/>
<feColorMatrix in="SourceAlpha" type="matrix" values="0 0 0 0 0 0 0 0 0 0 0 0 0 0 0 0 0 0 127 0" result="hardAlpha"/>
<feOffset dy="4"/>
<feGaussianBlur stdDeviation="2"/>
<feComposite in2="hardAlpha" operator="out"/>
<feColorMatrix type="matrix" values="0 0 0 0 0 0 0 0 0 0 0 0 0 0 0 0 0 0 0.25 0"/>
<feBlend mode="normal" in2="BackgroundImageFix" result="effect1_dropShadow_35613_133"/>
<feBlend mode="normal" in="SourceGraphic" in2="effect1_dropShadow_35613_133" result="shape"/>
</filter>
</defs>
</svg>
